<svg xmlns="http://www.w3.org/2000/svg" xmlns:svg="http://www.w3.org/2000/svg" xmlns:xlink="http://www.w3.org/1999/xlink" xml:space="preserve" id="svg176" width="130.81831" height="141.23242" version="1.1" viewBox="0 0 130.81831 141.23242">
  <style id="style_common">
    .trees { fill:#144043 }
    .cement { fill:#c6c2c2 }
    .land { fill:#1f5054 }
    .rock { fill:#dcd5b6 }
    .water { fill:#4a6b96 }
    .wood { fill:#593700 }
    .tarmac { fill:#768089 }
    .gravel { fill:#946d3e }
    .building { fill:#1a2632 }
    .floor { fill:#70777f }
    .locked { fill:#37414c }
    .map_border { fill:none;stroke:#000;stroke-width:2 }
    .fence { fill:none;stroke:#c4e3c3;stroke-width:1 }
    .road_tarmac { fill:none;stroke:#888 }
    .road_gravel { fill:none;stroke:#946d3e }
    .road_small { stroke-width:5 }
    .road_medium { stroke-width:8 }
    .road_large { stroke-width:12 }
    .railroad { fill:none;stroke:#914833;stroke-dasharray:6;stroke-width:3 }
    .powerline { fill:none;stroke:#ffce00;stroke-width:2;stroke-miterlimit:10;stroke-dasharray:6,6 }
    .danger { fill:red;fill-opacity:.4;stroke:red;stroke-dasharray:4,2;stroke-width:2 }
    .danger_small { fill:red;fill-opacity:.4;stroke:red;stroke-dasharray:2,1;stroke-width:1 }
    .task { fill:#000 }
    .stairs { fill:#FFD700 }
    .shadow { filter:drop-shadow(0 0 2px #000) }
  </style>
  <style id="style_factory">
    .wall { fill:none;stroke:#000;stroke-width:0.2; }
  </style>
  <defs id="defs1">
    <path id="stair-1" d="M39.1426 95.2973V106.58h3.0521V95.2973Z"/>
    <path id="stair-2" d="M30.1617 114.287h-6.5965v3.006h6.5965Z"/>
    <path id="stair-3" d="M23.7935 120.316h2.8739v1.517h-2.8739Z"/>
    <path id="stair-4" d="M28.3251 75.1428v3.0709h1.4402v-3.0709Z"/>
    <path id="stair-7" d="m75.1892 95.2502 9.07.0157-.008 2.9515-9.07-.0157Z"/>
    <path id="stair-8" d="M87.0874 63.3964v8.3085h2.9758v-8.3085Z"/>
    <path id="stair-220" d="M86.1828 49.887V39.5518h4.9597V49.887Z"/>
    <path id="stair-221" d="M98.587 39.1456h2.931v-1.2648h-2.931Z"/>
    <path id="stair-222" d="M98.4578 9.62181v1.42359H101.4V9.62181Z"/>
    <path id="stair-223" d="M45.8568 62.7733h1.3624v4.8857h-1.3624Z"/>
    <path id="stair-224" d="M54.4139 60.0327h1.3622v4.8857h-1.3622Z"/>
    <path id="stair-69" d="M18.2137 111.316v6.069H20.95v-6.069Zm1.3028 1.166h.1308v3.735h-.1308Z"/>
    <path id="stair-96" d="M14.176 69.4637v5.8536h2.7363v-5.8536Zm1.3027 1.125h.1308v3.6016h-.1308Z"/>
    <path id="stair-97" d="M52.0882 93.4709v6.0459h2.7363v-6.0459Zm1.3027 1.162h.1309v3.7202h-.1309Z"/>
    <path id="stair-100" d="M70.3349 93.4707v6.0463h2.7363v-6.0463Zm1.3027 1.162h.1309v3.7202h-.1309Z"/>
    <path id="stair-101" d="M96.7289 21.8536h-5.8535V24.59h5.8535Zm-1.125 1.3028v.1308h-3.6016v-.1308Z"/>
    <path id="stair-129" d="M46.6849 43.5374v6.0547h2.7364v-6.0547Zm1.3028 1.1637h.1308v3.7253h-.1308Z"/>
    <path id="stair-62" d="M28.0307 29.732h-2.7258v-4.1555h2.7258"/>
    <path id="stair-127" d="M30.3351 39.7077h-6.3573v3.2048h6.3573Zm-1.5627 1.5258v.1533h-3.3123v-.1533Z"/>
    <path id="stair-128" d="M30.3351 65.8672h-6.3573v3.2048h6.3573Zm-1.5628 1.5258v.1532H25.46v-.1532Z"/>
    <path id="stair-63" d="M24.7291 87.3812h2.9143v1.2792h-2.9143"/>
    <path id="stair-130" d="M24.7418 72.3192h2.9143v1.2792h-2.9143"/>
    <path id="stair-131" d="m84.0534 42.6737-1.4406.0027.0125 3.7271 1.4405-.0027Z"/>
    <path id="stair-132" d="M83.3833 39.4151h1.2252v-5.4587h-1.2252Z"/>
    <path id="stair-140" d="M33.3318 94.6163h-1.2787v2.9043h1.2787Z"/>
    <path id="stair-141" d="M47.7275 94.6592h-1.2787v2.9043h1.2787Z"/>
    <path id="stair-155" d="M52.5058 20.887v-3.4477h-1.1721v3.4477Z"/>
    <path id="stair-226" d="M70.98 25.5491V21.945h-1.1722v3.6041Z"/>
    <path id="stair-134" d="M92.2973 42.9477v5.8536h3.1411v-5.8536Zm1.4954 1.125h.1502v3.6016h-.1502Z"/>
    <path id="stair-135" d="M12.0115 65.0487h3.2275v1.3764h-3.2275Z"/>
    <path id="stair-136" d="M53.6835 6.40033h2.9323v1.32034h-2.9323Z"/>
    <path id="stair-138" d="M53.1803 30.0761h2.9557v-1.229h-2.9557Z"/>
    <path id="stair-139" d="M78.1769 37.6569H75.299v1.3571h2.8779Z"/>
    <path id="stair-140" d="M.147886 74.7243v-2.9255H1.55806v2.9255Z"/>
  </defs>
  <g id="Basement" class="shadow" transform="translate(.113281 -.56836)">
    <g id="Floor-b" class="floor">
      <path d="M78.845986 44.738914h1.526v6.6383h-1.526z"/>
      <path d="M74.774471 44.738914h1.5261v6.6383h-1.5261z"/>
      <path d="m94.630859.56836-.002 10.101562h.714844v.285156h-.714844l-.002 8.146484H90.40625v3.46875h-7.818359v5.462891h-7.441407v.988281h-6.154296V13.134766h-8.785157v-.63086h.503907V6.871094H53.0625v2.921875h4.748047v3.341797H53.0625v17.882812h8.972656v11.384766h2.9375v9.433594h.345703v.652343H45.580078v4.185547H25.869141V45.759766h7.140625v-5.476563h-7.623047v1.701172H28.625v1.777344h-4.777344v25.830078h6.644532v.595703H17.644531v2.595703h-.607422v-.310547h-4.357421v3.929688h-.300782v-.34961H8.025391v1.041016H2.85742v-7.212891H-.11328v9.199219h12.492187v-.451172h.59961v.464844h4.058593v-.523438h.619141v.47461h3.179688v-6.572266h-1.203126V72.1875h8.001954v-.857422h.296875l.0039 7.753906h2.060547v9.091797H23.91015l.01953 8.273438h-.671876v-1.998047h-5.58789v7.474608h5.58789v-4.398436h.675782l.0059 2.507816 6.136719.0293-.0293 14.82032-6.373047-.0293v3.02539l6.654297.0293v.54492h-6.464844v4.29687h9.148438v-12.6289h9.080078V95.816406h-3.052765v11.332034h-6.027343V85.439453h12.568359v2.453125h10.205078v-8.416016h9.212891v5.490235h3.03125v-5.490235h7.052734v12.56836h-6.449219v6.90039h13.8125v-3.662109l-7.357421-.01953v-.533203l14.703125-.01172v4.408203h.939453v.394531h-1.753907v1.482426H69.220703v4.41992h43.439457v-4.41992H93.667969v-1.482426h-1.751953v-.394531h.863281v-4.410156l9.962893-.0059V72.925781h-2.03711V60.451172h-2.001955v.597656h-8.742187v-6.589844h8.742187v.585938h2.001955v-.585938h2.44531V35.451172h.68359v-7.396484h-.68359V9.785156l-5.97608.00741v2.052276l-.375482-.0074v-.882355h-.460937v-.285156h.460937V2.591797h2.621094V.568359Zm2.167969 12.413604.375482.0074v.504365l3.19092-.0074v11.814453h-3.566402zm0 14.273895h3.566402v8.916016h-3.232418v.771484h-9.021484v.445313h-.320312v-.445313H83v-2.642578h-5.876953v-.542969h-.439453v-.226562l.439453.0039v-2.517578h19.675781zm-32.789062 3.761719h11.136718v2.5l.486328.0039v.236328h-.486328v.542969h-1.949218v5.556641H79v.542969H64.009766Zm23.78125 8.494141h.320312v.345703h5.556641v.568359h-1.50586v4.470703h3.16211v-5.039062h5.041011v12.630859H89.960938v-2.033203h1.068359v-6.828125h-4.958985v6.828125h.876954v2.033203h-8.392578v-9.074219h2.099609v-3.013671h-.568359v-.542969h7.705078zm-19.78125 3.902343h8.59375v9.074219h-1.75v1.970703h.785156l-.01563 6.589844h-7.59375v-6.589844h.623047v-1.970703h-1.085938v-.652343h.44336zm-12.22461 12.048829h9.212891v8.560547h.4375v.24414h-.4375v11.873047h.4375v.283203h-9.650391ZM32.980469 58.65625h12.599609v23.808594H33.009766L32.96875 70.1875h-1.476562v-.595703h1.488281zm34.58789 5.367188h19.378907v5.15625h2.974609v-5.15625h7.859375v8.902343H75.082031v3.498047h-7.513672v-.283203h.460938V64.267578h-.460938z"/>
    </g>
    <g id="Stairs-b" class="stairs">
      <g id="Connector-Ground_Floor">
        <use xlink:href="#stair-1"/>
        <use xlink:href="#stair-2"/>
        <use xlink:href="#stair-3"/>
        <use xlink:href="#stair-4"/>
        <use xlink:href="#stair-7"/>
        <use xlink:href="#stair-8"/>
        <use xlink:href="#stair-220"/>
        <use xlink:href="#stair-221"/>
        <use xlink:href="#stair-222"/>
        <use xlink:href="#stair-223"/>
        <use xlink:href="#stair-224"/>
        <use xlink:href="#stair-136"/>
        <use xlink:href="#stair-140"/>
        <use xlink:href="#stair-128"/>
        <use xlink:href="#stair-127"/>
        <use xlink:href="#stair-138"/>
        <use xlink:href="#stair-139"/>
        <use xlink:href="#stair-134"/>
      </g>
    </g>
    <g id="Wall-b" class="building">
      <path d="M54.4055 81.708755c0 1.986-1.61 3.596-3.5959 3.596-.9538 0-1.8684-.3789-2.5428-1.0533-.6744-.6743-1.0533-1.5889-1.0533-2.5426 0-.9538.3789-1.8685 1.0533-2.5428.6744-.6745 1.589-1.0533 2.5428-1.0533 1.9859 0 3.596 1.61 3.596 3.5961z"/>
      <path d="M54.4055 59.445574c0 1.9861-1.61 3.5961-3.5959 3.5961-.9538 0-1.8684-.3789-2.5428-1.0533-.6744-.6744-1.0533-1.5891-1.0533-2.5428 0-.9537.3789-1.8684 1.0533-2.5428.6744-.6744 1.589-1.0532 2.5428-1.0532 1.9859 0 3.596 1.61 3.596 3.596z"/>
      <path d="M54.4055 70.2176c0 1.986-1.61 3.5961-3.5959 3.5961-.9538 0-1.8684-.3789-2.5428-1.0533-.6744-.6744-1.0533-1.5891-1.0533-2.5428 0-.9537.3789-1.8684 1.0533-2.5428.6744-.6744 1.589-1.0533 2.5428-1.0533 1.9859 0 3.596 1.6102 3.596 3.5962z"/>
      <path d="m91.5864 87.5825 1.4562-6.3482 2.031.4658-1.4564 6.3483z"/>
      <path d="m93.8963 87.9776.3705-2.1598 2.0536.352-.3704 2.1601z"/>
      <path d="M89.7412 85.9822h1.6667v1.744h-1.6667z"/>
      <path d="m90.1472 85.3849.3821-1.7962 1.7358.3692-.3821 1.7962z"/>
      <path d="M86.2995 88.3435h1.1267v1.1267h-1.1267z"/>
      <path d="M86.2995 78.466h1.1267v1.1266h-1.1267z"/>
      <path d="M99.9582 81.8614h1.8518v1.852h-1.8518z"/>
      <path d="M100.359 84.161h1.513v2.5466h-1.513z"/>
      <path d="M99.8662 86.8465h1.8518v1.852h-1.8518z"/>
    </g>
  </g>
  <g id="Ground_Floor" transform="translate(.113281 -.56836)">
    <g id="Floor" class="floor">
      <path d="M97.183594 3.109375v3.761719H49.96875l-.408203 2.953125h8.162109v.296875l-16.423828.0078h-10.375v-.304675h18.22461l.404296-2.953125H25.179688v2.953125h4.875v.304687h-4.875v5.503906H1.431641v6.41211h23.748047v17.957031h4.958984v.34375h-5.683594v3.203125h6.523438v2.527344h-4.082032v.912109h-.160156v-.912109h-5.753906v4.958984h5.753906v-2.892578h.152344l.0098 2.892578h2.30664v.335938h-6.162109v7.591797h6.105469v.267578h-6.105469v7.05664h8.43164v.115235h-6.980468v3.205078h6.675781v.304687H3.242188l-.00391 5.076172h-.451169v-5.103515H-.099609v17.746093h2.886718V75.882812h.451172l-.00586 6.552735-.00781 12.523437h-.4375v-2.99414h-2.86133v29.833986h3.279297v4.8457h4.716797v-.61133h.279297v15.76758h6.484375v-20.65039h.285156v1.67773h15.587891v-2.17382h2.59375v-2.32813h-1.488282v-.38086h1.564454l.0098-11.35937.0098-11.445315h5.779297l.0098 6.027345.0098 5.96094h3.013672l.0098-5.99805.0098-5.990235h4.111328v3.423828h-.18164v-3.242187h-3.738282v4.787114h3.738282v-.51563h.18164v.51563h10.275391l.01953 12.18164h6.392578l.01953-12.18164 20.318359-.01 20.095699-.01v-2.449215h24.36328v-6.413603H103.3125l.006-11.580078h.24805v2.300782h2.57421v-1.960938h.31836v2.279297h-2.89257v4.966797h17.86132V74.966797l-2.00585.115234-.1504-2.617187 1.43946-.101563-.20703-9.273437-.80274-2.480469.54883-4.197266 1.07031-4.21289-.0859-4.308594 4.11132-.572266V35.494141h1.36719V29.34375h-4.85156v6.789062h-8.52149v-.298828h7.82813v-6.441406l-19.74219-.01953-.01-5.679688.0215-5.560547 8.50781-.03125h8.47657v-8.076171h12.2832v-6.36133h-12.2832v-.554687Zm4.298826 6.179688h.95313v.6875h-.95313v-.191407h-4.349608V11.3125h-.304687v-.496094h-.572266v-.695312h-.310547v-.296875h.394532V9.5l2.578125-.00977 2.564451-.00977Zm-41.507811.535156h2.136719v.296875h-.763672V10.816406h-.648437v-.695312h-.72461zm4.310547 0h1.296875v.296875h-1.296875zm4.044922 0h.990234v.296875h-.990234zm3.738281 0H85.71875v.296875H72.068359Zm16.404297 0h1.03125v.296875h-1.03125zm3.777344 0h.996094l-.02344.296875H92.25Zm4.578125 2.822265h.304687v14.230469h-.30664l.002-7.115234zm-.002 15.375h.30664v.916016h.652344V29.806641h-.701172v-.673829h-.257812zm-14.572266 6.085938 1.087891.01953.0098 3.023438.0098 2.851562h2.708984v10.453125h4.958985V39.943359h3.265625v.34375h-2.136719v3.177735h3.167969v-1.19336h.759766v.185547h-.435569V50.125h-.248047v-.433594h-3.375v2.148438h3.375v-1.052735h.248047v1.0625h2.951171v.253907H83.970703V40.269531H73.175781v-3.853515h.382813v3.455078h9.330078v-5.38086h-.634766zm-9.078125.002 8.105469.01758v.363281h-7.722656v.970704h-.382813zm23.652344 1.724609h2.632813v.304688h-2.328126v1.078125h-.304687zm3.777342 0h4.50195V53.134813h-1.79297v-.390625h-.80078v-.640625h-2.914058v-.253907h3.623048v-5.28325H97.375v-4.109375h-.421875v-.185547h4.056645v.185547h-3.427739v3.925781h5.640629v-3.925781h-1.35547v-.185547h1.35547v-1.984375h-7.908207v-.34375h1.513672v-1.566406h.304687v1.566406h6.027348v-3.804687h-2.55469zm7.4668 0h1.91796v.298828h-1.54882v20.548829h-4.89844v3.349609h3.23633v.613281h-.36524v-.273437h-2.84765v.273437h-.23633l.002-4.582031 2.56641-.0098 2.17383-.0098zm-71.255861 3.328125h.689453l-.01172.5625-.0098.621094h-4.177734V44.044969h-.34375V40.34575h-1.601563V40.002h5.455078zm23.882813 0h.648437v.810547h2.957032v.314453h-3.605469zm4.634765.810547h3.986328v.869141h-.876953V52.09575h.876953v.648438h-.876953v11.216797h.839844v.6875h-.839844v11.177734h.88086l-.01172.333984-.0098.333985-.429687.0098-.429688.01172v1.140625h-.304605v-1.144614H67.375v-.685547h.763672V64.648438h-.72461v-.6875h.72461V52.744141H67.375v-.648438h.763672V40.841797H67.375v-.554688h-2.041016ZM.746094 43.378906v26.232422h11.15039v-2.6875h5.275391v2.6875h5.601563V51.417969H20.65625v-5.648438h3.0625v-2.390625zm32.216797 1.84961h.34375V67.318359h-.34375l-.002-3.003906-.002-16.177734zm70.365229 16.283203h.23829v2.048828h2.84765v-2.048828h.36524v2.277343h1.38867v5.992188h2.75781v5.900391h-4.4668v2.779297h-.31836v-2.75586h-2.57421v3.052734h-.2461l.002-5.134765zm-70.365229 7.027343h.34375v.6875l-.03906.685547-.03711 10.244141v10.244141h-5.19336l.01172-.220703.01172-.228516h4.826172V69.912109h-.5v-.304687h.576172zm35.175781 18.808594h.304687v.419922h.876953v.648438h-.876953V88.720703h-.304687v-.304687H67.375v-.648438h.763672zM2.787109 96.007812h.457032l-.00977 4.072268-.00977 4.07226h-.4375zm0 9.214848h.4375v5.45507h-.4375zm0 6.51172h.4375l.00977 3.11132.00977 3.09961h2.378907v.30469H2.787109Zm3.900391 6.21093h1.513672v6.79102h-.279297V118.25H6.6875Zm7.998047 0h15.224609v.38086H14.970703V120.10156h-.285156z"/>
    </g>
    <g id="Ledge" class="cement">
      <path d="M45.8099 53.2188h9.7709v34.1086h-9.7709z"/>
      <path d="M78.7445 43.8932h1.526v6.6383h-1.526z"/>
      <path d="M73.8611 43.8932h1.5261v6.6383h-1.5261z"/>
      <path d="M32.8865 69.9124v20.0388h-4.8261V69.9124Z"/>
    </g>
    <g id="Obstacles" class="building">
      <path d="M25.8295 23.4658h4.823v1.6977h-4.823z"/>
      <path d="M62.674 15.201125h5.370014V28.1868H62.674Z"/>
      <path d="M39.5213 24.6473h1.9084v2.0584h-1.9084z"/>
      <path d="M70.6731 61.425h2.7897v5.4957h-2.7897z"/>
      <path d="m74.2206 62.0443 2.7742.2942-.5795 5.465-2.7741-.2942z"/>
      <path d="m85.9186 77.481.9693 2.6159-5.1533 1.9093-.9692-2.6159z"/>
      <path d="M90.5841 80.3475h2.7897v5.4957h-2.7897z"/>
      <path d="M95.4879 79.5704h2.7897v5.4957h-2.7897z"/>
      <path d="M89.847 75.2688h5.1752v2.7991H89.847Z"/>
      <path d="M101.038 67.3252h-2.4748v6.1868h2.4748z"/>
      <path d="m76.084311 90.181067-1.8181-5.2472-1.8127.6281 1.8181 5.2472z"/>
      <path d="m48.3132 88.2085-4.8008 2.1199-.7341-1.6624 4.8008-2.1199z"/>
      <path d="M73.553155 6.937254c.1551.01034 1.893.08275 1.893.08275l-.0429.98138-1.893-.08276z"/>
      <path d="m22.5726 17.4323-.2002 1.6948-4.8088-.568.2002-1.6948z"/>
      <path d="m58.7151 52.1984 4.8697.02.007-1.6965-4.8697-.02z"/>
      <path d="m68.0545 46.8988-4.8397-.42-.1455 1.6764 4.8397.42z"/>
      <path d="m65.0447 41.6391-.03 4.8697 1.667.0103.03-4.8697z"/>
      <path d="M53.962318 15.201125H59.249V28.1868h-5.286682z"/>
      <path d="m96.516408 54.081154-.0723.5215.2129.0293-.0351.2481-1.336-.1875-.0156.1172 1.2793.1796-.0742.5333-1.2832-.1797-.0176.125 1.3398.1875-.0312.2207-.211-.0293-.0761.5351.957.1348.0352-.252 2.4257.3399.2559-1.8203-2.4414-.3418.0332-.2285z"/>
      <path d="m98.101961 64.779333.0128-.5264-.2148-.005.0069-.2504 1.3486.0352.002-.1182-1.2914-.0338.0134-.5382 1.2953.0334.003-.1262-1.3525-.0347.0061-.2229.2129.0052.0152-.5403-.9661-.0257-.0065.2544-2.4487-.0634-.0483 1.8376 2.4644.0635-.0071.2308z"/>
      <path d="m91.961249 55.952162.0128-.5263-.2148-.005.0069-.2504 1.3486.0352.002-.1182-1.2915-.0339.0135-.5382 1.2953.0335.003-.1262-1.3525-.0348.0061-.2228.2129.0052.0152-.5404-.9662-.0256-.0065.2543-2.4486-.0633-.0484 1.8375 2.4644.0635-.0071.2308z"/>
      <path d="m83.447089 59.396666-.2831-.4439-.1811.1158-.134-.2117 1.1386-.7235-.0643-.0992-1.0904.6928-.2893-.4541 1.0934-.6952-.0679-.1064-1.1416.726-.1193-.1883.1796-.1145-.2891-.4568-.8159.518.1365.2146-2.0671 1.3142.9856 1.5517 2.0802-1.3228.1229.1954z"/>
      <path d="m33.516496 91.768829.0451.5245.2141-.0186.0206.2497-1.3442.1132.0107.1177 1.2873-.1083.0458.5364-1.2911.1092.0105.1258 1.3481-.1141.0185.2221-.2122.0182.0443.5387.9631-.0806-.0216-.2535 2.4408-.2062-.1539-1.8318-2.4564.2078-.0183-.2302z"/>
      <path d="m11.573506 107.92819-.5058-.146-.0595.206-.2404-.07.3767-1.296-.1137-.032-.3609 1.241-.51712-.15.36145-1.244-.1212-.036-.37729 1.299-.21396-.062.05915-.205-.51875-.152-.27029.928.24433.071-.68345 2.352 1.76497.514.68766-2.367.2214.065z"/>
      <path d="m112.67386 11.53955.0526.523813.21404-.02169.0239.249356-1.34277.132447.013.117418 1.28526-.12648.0539.53562-1.28917.127362.0122.125737 1.34668-.133329.0214.221909-.21208.02125.0524.537987.96198-.09447-.0249-.253113 2.43786-.240986-.18-1.829381-2.45395.242876-.0215-.229863z"/>
      <path d="m108.98081 8.075536.125-.51139-.209-.05083.06-.24314 1.31.32277.027-.11504-1.254-.30922.128-.52287 1.258.30964.03-.12263-1.313-.32318.053-.21638.207.05061.131-.52459-.939-.23166-.061.24693-2.378-.58546-.441 1.78473 2.394.589-.056.22398z"/>
      <path d="M78.3676 42.9224h2.4191v6.3742h-2.4191z"/>
      <path d="m36.931672 66.66565.3993-.3431-.1402-.1628.1905-.1627.8774 1.0248.0891-.0777-.8401-.9814.4085-.3506.843.984.0957-.0823-.8803-1.0274.1695-.1447.1388.1615.4113-.3507-.6282-.7345-.1932.1656-1.5935-1.8603-1.3966 1.1952 1.604 1.8721-.1761.1494z"/>
      <path d="m8.975252 20.52865.194714-.489126-.199701-.07925.093354-.232479 1.252536.5012.04292-.110155-1.199365-.48004.199389-.500037 1.20314.481.04663-.117291-1.256311-.502158.083093-.206795.197858.07874.201823-.501424-.897144-.359526-.094401.236301-2.274388-.909459-.683279 1.706494 2.289163.915047-.086761.214019z"/>
      <path d="m44.250832 12.885283-.420048.317348.129226.171105-.20013.150467-.811571-1.078366-.09377.07183.777017 1.032751-.430034.324011-.779089-1.034989-.101465.07543.813618 1.080636-.177877.134098-.128635-.170225-.432613.324117.580793.772606.203286-.153013 1.472964 1.956881 1.469373-1.104653-1.482448-1.969242.184739-.138255z"/>
      <path d="m90.442198 22.555485-.500516.163199.06644.203869-.23823.07706-.416005-1.283924-.112054.03737.398195 1.229541-.512128.166245-.399425-1.232332-.120503.03826.417201 1.286737-.211859.06884-.06616-.202845-.514601.165506.297422.919663.242043-.07844.755128 2.329976 1.749078-.565722-.760067-2.344752.2197-.07053z"/>
      <path d="m124.23698 33.986049-.48575.203059.0831.198197-.23145.096-.51824-1.245583-.10884.04619.4962 1.192749-.49688.207426-.49809-1.196158-.11657.04844.52017 1.248855-.20588.08542-.0821-.196561-.4994.206706.3708.892483.23487-.0979.9414 2.261263 1.69732-.705734-.94775-2.275747.21361-.08766z"/>
      <path d="m115.34731 72.12797 2.68642-5.49112 2.14136 1.047616-2.68643 5.49112z"/>
      <path d="M115.93866 58.172078h6.53865v2.416092h-6.53865z"/>
      <path d="M108.36936 51.988232h3.1764v2.145761h-3.1764z"/>
      <path d="m113.94496 49.69041 1.53751-1.368556 4.72974 5.313651-1.53752 1.368556z"/>
      <path d="M116.5469 39.721915v-3.14261h2.14576v3.14261z"/>
      <path d="m118.23648 63.352535.11827 3.159506 2.08222-.07794-.11827-3.159506z"/>
    </g>
    <g id="Stairs" class="stairs">
      <g id="Stairs-down">
        <use xlink:href="#stair-1"/>
        <use xlink:href="#stair-2"/>
        <use xlink:href="#stair-3"/>
        <use xlink:href="#stair-4"/>
        <use xlink:href="#stair-7"/>
        <use xlink:href="#stair-8"/>
        <use xlink:href="#stair-220"/>
        <use xlink:href="#stair-221"/>
        <use xlink:href="#stair-222"/>
        <use xlink:href="#stair-223"/>
        <use xlink:href="#stair-224"/>
        <use xlink:href="#stair-136"/>
        <use xlink:href="#stair-140"/>
        <use xlink:href="#stair-138"/>
        <use xlink:href="#stair-139"/>
      </g>
      <g id="Stairs-up">
        <use xlink:href="#stair-69"/>
        <use xlink:href="#stair-96"/>
        <use xlink:href="#stair-97"/>
        <use xlink:href="#stair-100"/>
        <use xlink:href="#stair-101"/>
        <use xlink:href="#stair-129"/>
        <use xlink:href="#stair-62"/>
        <use xlink:href="#stair-127"/>
        <use xlink:href="#stair-128"/>
        <use xlink:href="#stair-63"/>
        <use xlink:href="#stair-130"/>
        <use xlink:href="#stair-131"/>
        <use xlink:href="#stair-132"/>
        <use xlink:href="#stair-140"/>
        <use xlink:href="#stair-141"/>
        <use xlink:href="#stair-155"/>
        <use xlink:href="#stair-226"/>
        <use xlink:href="#stair-135"/>
      </g>
    </g>
    <g id="Wall" class="building wall">
      <path d="M24.1274 39.9331"/>
      <path d="M37.5547 39.9331"/>
      <path d="m6.39159 80.6715-.63189-6.1417 2.35588-.2074.55472 6.1408"/>
      <path d="M8.23368 87.9322H14.329"/>
      <path d="M8.23368 90.4016H14.329"/>
      <path d="m5.4578 98.8201 11.2168-3.8816"/>
      <path d="m6.32851 101.227 11.00739-3.9597"/>
      <path d="M36.7573 35.4553V29.368"/>
      <path d="M39.0723 35.4553V29.368"/>
      <path d="M39.9881 23.994h6.1734v-6.0192"/>
      <path d="M39.9881 21.0616h6.1734"/>
      <path d="M47.3962 23.994h1.6978v-6.0192"/>
      <path d="M96.8892 29.1337v5.218443"/>
      <path d="M96.8892 35.387643v.463"/>
      <path d="M8.203258 130.683H9.55715"/>
      <path d="M10.6709 130.683h4.015518"/>
      <path d="M118.497 10.025731V5.78188"/>
      <path d="M3.04257 120.254v1.543"/>
      <path d="M58.6451 100.188h4.252545"/>
      <path d="M57.5265 100.188h-1.059285"/>
      <path d="M103.388 96.233691v1.406858"/>
      <path d="M103.388 91.226162v3.943515"/>
      <path d="M115.60865 95.202477v-3.976315"/>
      <path d="M115.60865 96.133069v1.50748"/>
      <path d="M25.0792 22.055498v-4.407712"/>
      <path d="M25.0792 16.558886v-.926"/>
      <path d="M12.3978 17.647786v4.407712"/>
      <path d="M12.3978 16.558886v-.926"/>
      <path d="M57.3099 39.9331h-8.3342"/>
      <path d="M58.7457 39.9331h1.9516"/>
      <path d="m43.0632 38.2543 6.0481.7181"/>
      <path d="m49.3319 36.6966-6.0481-.7181"/>
      <path d="M32.4976 46.069h.463"/>
      <path d="M31.4419 46.069h-.463"/>
      <path d="M46.1975 43.7916h-.6173v4.167"/>
      <path d="M45.5802 49.6564v.6173h8.0256v-6.4821"/>
      <path d="M53.6058 42.4025v-2.4694"/>
      <path d="M50.6734 47.0327v-7.0996"/>
      <path d="M47.8172 43.7916h2.778"/>
      <path d="M118.497 4.52787v-.86671"/>
      <path d="M88.9068 93.2589v-1.852h12.6562v1.852"/>
      <path d="M101.563 95.8336v1.852H88.9068v-1.852"/>
      <path d="M3.04257 105.222v-1.069"/>
      <path d="M8.209141 118.033H9.55715"/>
      <path d="M10.6709 118.033h3.997787"/>
      <path d="M65.5823 9.97238h2.7469"/>
      <path d="M69.3211 9.97238h2.7469"/>
      <path d="M85.719 9.97238h2.7541"/>
      <path d="M89.5032 9.97238h2.7469"/>
      <path d="M93.2348 9.97238h2.7101"/>
      <path d="m3.36312 46.24289-2.3355.06228-.069854-2.619502 6.037904-.16101.069383 2.601868-2.612034.06965"/>
    </g>
    <g id="Building" class="building">
      <path d="M54.429 81.648832c0 .9415-.374 1.8444-1.0397 2.5101-.6657.6657-1.5686 1.0397-2.5101 1.0397-.9414 0-1.8443-.374-2.51-1.0397-.6657-.6657-1.0397-1.5686-1.0397-2.5101 0-.9414.374-1.8443 1.0397-2.51.6657-.6657 1.5686-1.0397 2.51-1.0397.9415 0 1.8444.374 2.5101 1.0397.6657.6657 1.0397 1.5686 1.0397 2.51z"/>
      <path d="M54.429 59.549211c0 .9414-.374 1.8443-1.0397 2.51-.6657.6657-1.5686 1.0397-2.5101 1.0397-.9414 0-1.8443-.374-2.51-1.0397-.6657-.6657-1.0397-1.5686-1.0397-2.51 0-.9415.374-1.8444 1.0397-2.5101.6657-.6657 1.5686-1.0397 2.51-1.0397.9415 0 1.8444.374 2.5101 1.0397.6657.6657 1.0397 1.5686 1.0397 2.5101z"/>
      <path d="M54.429 70.2603c0 .9415-.374 1.8444-1.0397 2.5101-.6657.6657-1.5686 1.0397-2.5101 1.0397-.9414 0-1.8443-.374-2.51-1.0397-.6657-.6657-1.0397-1.5686-1.0397-2.5101 0-.9414.374-1.8443 1.0397-2.51.6657-.6657 1.5686-1.0397 2.51-1.0397.9415 0 1.8444.374 2.5101 1.0397.6657.6657 1.0397 1.5686 1.0397 2.51z"/>
      <path d="M64.0486 59.549161c0 .7675-.3049 1.5035-.8476 2.0462-.5427.5427-1.2787.8476-2.0462.8476-.7675 0-1.5036-.3049-2.0463-.8476s-.8475-1.2787-.8475-2.0462c0-.7675.3048-1.5035.8475-2.0462.5427-.5427 1.2788-.8476 2.0463-.8476.7675 0 1.5035.3049 2.0462.8476.5427.5427.8476 1.2787.8476 2.0462z"/>
      <path d="M64.0486 81.648882c0 .7675-.3049 1.5037-.8476 2.0463-.5427.5427-1.2787.8475-2.0462.8475-.7675 0-1.5036-.3048-2.0463-.8475-.5427-.5426-.8475-1.2788-.8475-2.0463 0-.7675.3048-1.5035.8475-2.0462.5427-.5427 1.2788-.8476 2.0463-.8476.7675 0 1.5035.3049 2.0462.8476.5427.5427.8476 1.2787.8476 2.0462z"/>
      <path d="M64.0486 70.2603c0 .7675-.3049 1.5036-.8476 2.0463s-1.2787.8476-2.0462.8476c-.7675 0-1.5036-.3049-2.0463-.8476s-.8475-1.2788-.8475-2.0463c0-.7674.3048-1.5035.8475-2.0462.5427-.5427 1.2788-.8476 2.0463-.8476.7675 0 1.5035.3049 2.0462.8476.5427.5427.8476 1.2788.8476 2.0462z"/>
      <path d="M76.573793 14.502631v1.8515h-.9179v2.8223h.9179v1.8144h7.0742v-1.8144h5.7168v-2.8223h-5.7168v-1.8515z"/>
    </g>
  </g>
  <g id="Second_Floor" class="shadow" transform="translate(.113281 -.56836)">
    <g id="Floor-2" class="floor">
      <path d="M33.268 99.041V98.03h-1.259v-2.8613h14.1923v4.8833H33.268Z"/>
      <path d="M51.080078 15.949219v2.078125h1.322266v9.986328h18.552734v-2.09375h-1.322266v-9.970703zm7.828125 2.078125h4.5v7.892578h-4.5z"/>
      <path d="M73.23163 34.1264H83.3613v5.851459H73.23163Z"/>
      <path d="M25.1542 30.2429v9.7168h5.0507v.3847h-5.75v3.2051h6.6387v.1524H18.5038v11.8652h2.0214v2.5566h-2.0214v8.0879H31.035v.1934h-6.541v3.2031l4.2148.002h2.1954v.2812h-3.3965v20.0723h5.373V69.8913h-.2519v-.2812h.3339V66.405h-.9472v-.1934h.9472V43.7019h-.9531v-.1524h.9531v-3.2051h-1.6679v-.3847h.8047v-1.7813h-2.6934v-7.9355zm-3.1407 21.623h8.9649v6.2188h-8.9649v-1.1778h.1914v1.0254h4.1953V55.071h-4.1953v.7637h-.1914v-1.9844z"/>
      <path d="m83.96875 40.341797-9.376953.02539.0078 2.921874 9.320663-.01953v-1.503906h.360978v.630859h3.316406v.185547H84.28125v9.236328h7.558594v-.816406h.228515v.816406h3.296875v-.816406h.310547v.816406h7.089839v-5.154297h-.89257v-.27539h.89257v-5.714844H90.808594v.164063h-.181641v-.164063H84.28125v.119141h-.3125zm6.658203 1.371094h.181641v.533203h1.355468v1.18164h3.1875v-1.18164h4.703128v4.142578h.94336v.27539h-5.322269v3.462891h-.310547v-.431641h-3.296875v.431641h-.228515v-7.544922h-3.34375v-.185547h2.130859z"/>
    </g>
    <g id="Obstacles-2" class="building">
      <path d="M21.2326 48.912h10.6493v.7562H21.2326Z"/>
      <path d="M20.8856 46.0123h9.8776v.7563h-9.8776z"/>
      <path d="M21.6509 43.7024h8.6429v.4207h-8.6429z"/>
      <path d="M20.8136 60.4321h4.6571v.5566h-4.6571z"/>
      <path d="M28.0899 60.432h4.6572v.5566h-4.6572z"/>
      <path d="M28.0899 63.2885h4.6572v.5566h-4.6572z"/>
      <path d="M20.8136 63.2885h4.6571v.5566h-4.6571z"/>
      <path d="M21.6237 65.791h7.8177v.4207h-7.8177z"/>
      <path d="M24.6184 58.0854h1.7046v.4207h-1.7046z"/>
    </g>
    <g id="Stairs-2" class="stairs">
      <g id="Stairs-2-down">
        <use xlink:href="#stair-62"/>
        <use xlink:href="#stair-63"/>
        <use xlink:href="#stair-130"/>
        <use xlink:href="#stair-131"/>
        <use xlink:href="#stair-132"/>
        <use xlink:href="#stair-140"/>
        <use xlink:href="#stair-141"/>
        <use xlink:href="#stair-155"/>
        <use xlink:href="#stair-226"/>
        <use xlink:href="#stair-135"/>
        <use xlink:href="#stair-134"/>
        <path d="M24.2792 56.7487c.0573-.1252.0599-.2865.1523-.3789.0457-.0457.1937-.0289.25-.043.3211-.0802.5136.1322.8047.211.212.0574.4226.0366.5156.2226.0255.0511.167.2512.1211.3672-.0403.1019-.1495.1287-.2188.1953-.0678.0678-.2119.1341-.2968.1485-.085.0144-.5086-.059-.6211-.0586-.1125.0004-.5046-.0384-.6719-.2227-.0772-.085-.0698-.3657-.0351-.4414z"/>
      </g>
      <g id="Stairs-2-up">
        <use xlink:href="#stair-127"/>
        <use xlink:href="#stair-128"/>
        <use xlink:href="#stair-69"/>
        <use xlink:href="#stair-96"/>
        <use xlink:href="#stair-97"/>
        <use xlink:href="#stair-100"/>
        <use xlink:href="#stair-101"/>
        <use xlink:href="#stair-129"/>
      </g>
    </g>
    <g id="Wall-2" class="wall">
      <path d="M27.9385 32.4382v-.4631h-2.7843"/>
      <path d="M27.9385 33.8272v5.6173h-2.7843"/>
      <path d="M23.1449 56.4605v-1.389"/>
      <path d="M24.3024 56.4605v-1.389"/>
      <path d="M25.46 56.4605v-1.389"/>
      <path d="M20.4468 55.5763v-3.6637h-.463"/>
      <path d="M18.9664 51.9126h-.463"/>
    </g>
  </g>
  <g id="Third_Floor" class="shadow" transform="translate(.113281 -.56836)">
    <g id="Floor-3" class="floor">
      <path d="M25.179688 10.804688v.91016h5.095703v12.0371h-5.095703v.87696h59.673828v-.87696H34.201172v-12.0371h62.529297v-.91016zm69.527343 14.31055v.23437l-69.527343-.006v.90625l25.148437.002v12.20522l-13.164063-.002v.90625h3.207032l-.0625 1.708984h-7.041016v-1.03125H28.65625l-.01172.142579-.01172.144531h-4.177734v3.234375h6.50586v3.632812h-.167969v-3.376953h-4.925781v6.103516h4.925781v-1.830078h.167969v4.005859h-.167969v-1.832031h-4.925781v4.617187l4.925781-.191406v-1.832031h.167969v4.064453h-.167969v-2.003906l-4.925781.210937v11.00586h4.925781V62.625h.167969v3.757812l-3.253907-.0039-3.251953-.0039v3.232422h6.914063v.304687H3.783203l-.00586 48.044919h14.419923v-2.02344h-.302735l.0059-43.869135h15.945312l-.002 27.960935H34.75l.002-10.097654h14.742188l-.002 10.097654h.90625l.0059-54.115232h.640625l-.0059 54.115232h16.552735l.0059-56.066404h1.472656l-.0059 56.066404h16.554687l.0059-47.896494h.552734l-.0039 47.896484h.90625l.002-15.074218h14.740235l-.002 15.074218h.90625l.006-47.896484h.51563V40.267578H83.943359v.808594l-16.345703-.002v-.496094h-.310547l.134766-.203125-.59375-.396484.333984-.5-.171875-.115235 29.837891.0039V25.115238Zm-40.49414 1.13671 40.49414.004v12.204984l-40.49414-.0039zm-12.871094 13.10938 24.882812.002-.197265.294922.269531.179688-.365234.548828.353515.234375.04883-.07227.357422.236328v.289063l-24.572265-.0039h-.839844zm-8.074219 4.591797h.582031l-.002 25.958984h-.580031V56.921875Zm1.488281 0h7.363282l6.332031.0059v.25586h-1.853516v1.695312h2.900391l-.0039 39.451172H34.751953Zm14.960938.0059h1.328125v.25586h-1.328125zm2.234375 0h14.740234l-.002 9.677735H51.949219Zm18.02539 0h13.966797v8.169922h.775391l-.002 20.53125H69.974609Zm17.107422 8.169922h14.742186l-.002 28.253906H87.082031Zm-34.466796 3.634766h13.375v.501953h-13.375zm-21.824219 1.939453h.167969v4.121094h-.167969v-2.060547zm21.15625.689453h14.740234l-.0039 39.669881H51.945312Zm-38.25586 13.671875h3.300782v3.042969h-.302735v2.072266h.302735l-.0039 22.371093H4.685547l.00391-25.480469h9.003906zm56.28125 5.164063h14.742188l-.0039 20.675781H69.970703v-.08203h.191406v-1.894574h-.191406ZM4.685547 103.4043h12.304687l-.002 12.52929H4.683594Z"/>
    </g>
    <g id="Wall-3" class="wall">
      <path d="M33.3499 43.9536v-.5087"/>
      <path d="M33.3499 41.7492v-.6782"/>
      <path d="M10.9733 72.6046h.926v-2.6922"/>
      <path d="M9.42989 72.6046H4.45316v-2.6921"/>
      <path d="M30.7927 61.0656h-2.1865"/>
    </g>
    <g id="Stairs-3" class="stairs">
      <g id="Stairs-3-down">
        <use xlink:href="#stair-127"/>
        <use xlink:href="#stair-128"/>
        <use xlink:href="#stair-69"/>
        <use xlink:href="#stair-96"/>
        <use xlink:href="#stair-97"/>
        <use xlink:href="#stair-100"/>
        <use xlink:href="#stair-101"/>
        <use xlink:href="#stair-129"/>
      </g>
    </g>
  </g>
</svg>
